<svg width="450" height="450" viewBox="0 0 500 500" fill="none" xmlns="http://www.w3.org/2000/svg">
<path d="M373.902 467C402.802 467 426.23 461.716 426.23 455.197C426.23 448.678 402.802 443.394 373.902 443.394C345.002 443.394 321.574 448.678 321.574 455.197C321.574 461.716 345.002 467 373.902 467Z" fill="#1C1C1C" stroke="#1C1C1C" stroke-miterlimit="10" stroke-linecap="round" stroke-linejoin="round"/>
<path d="M333.546 188.477C333.546 188.477 326.469 192.814 326.57 194.709C326.672 196.604 323.93 231.261 323.621 235.593C323.312 239.925 319.189 248.862 318.866 252.924C318.543 256.985 319.573 261.046 320.758 262.94C321.943 264.834 326.324 270.788 326.324 270.788L338.075 252.64C338.075 252.64 338.442 249.391 338.248 240.727C338.053 232.064 333.546 188.477 333.546 188.477Z" fill="white" stroke="#1C1C1C" stroke-miterlimit="10" stroke-linecap="round" stroke-linejoin="round"/>
<path d="M378.755 102.621C378.755 102.621 366.257 101.817 359.142 110.486C352.026 119.155 353.551 132.42 353.498 136.481C353.445 140.542 341.36 152.463 342.705 157.336C344.05 162.208 347.598 162.748 346.463 166.809C345.327 170.871 337.877 173.313 338.966 178.456C340.054 183.599 343.966 190.907 343.966 190.907L416.013 191.4C416.013 191.4 418.584 183.817 415.842 178.134C413.1 172.45 409.208 170.558 409.875 167.85C410.542 165.142 413.983 158.642 412.639 153.769C411.294 148.897 406.619 147.546 406.154 138.882C405.689 130.219 404.377 115.87 397.501 108.835C390.624 101.801 378.755 102.621 378.755 102.621Z" fill="#1C1C1C" stroke="#1C1C1C" stroke-miterlimit="10" stroke-linecap="round" stroke-linejoin="round"/>
<path d="M356.622 436.734C356.622 436.734 353.195 443.505 348.598 448.652C344.001 453.799 339.544 456.51 339.689 459.217C339.834 461.924 349.881 462.459 355.194 460.56C360.507 458.661 364.365 454.868 365.433 454.597C366.502 454.326 369.494 454.594 369.561 450.804C369.628 447.014 369.047 436.184 369.047 436.184L356.622 436.734Z" fill="white" stroke="#1C1C1C" stroke-miterlimit="10" stroke-linecap="round" stroke-linejoin="round"/>
<path d="M355.194 460.561C360.507 458.662 364.365 454.869 365.433 454.598C366.502 454.327 369.494 454.595 369.561 450.805C369.597 448.801 369.451 444.829 369.305 441.53C366.313 446.713 361.206 446.479 361.206 446.479C361.206 446.479 361.104 444.584 358.222 441.337C356.348 439.226 354.454 440.89 353.354 442.313C353.071 442.749 352.778 443.192 352.467 443.648C352.425 443.723 352.396 443.778 352.396 443.778L352.376 443.779C351.263 445.398 349.985 447.099 348.597 448.654C344 453.801 339.543 456.512 339.688 459.219C339.835 461.924 349.881 462.459 355.194 460.561Z" fill="white" stroke="#1C1C1C" stroke-miterlimit="10" stroke-linecap="round" stroke-linejoin="round"/>
<path d="M393.668 436.709C393.668 436.709 397.822 443.475 402.971 448.615C408.12 453.756 412.868 456.46 413.014 459.167C413.159 461.874 403.171 462.422 397.654 460.531C392.137 458.639 387.873 454.852 386.775 454.582C385.678 454.312 382.714 454.585 382.24 450.795C381.766 447.005 381.184 436.176 381.184 436.176L393.668 436.709Z" fill="white" stroke="#1C1C1C" stroke-miterlimit="10" stroke-linecap="round" stroke-linejoin="round"/>
<path d="M397.654 460.532C392.137 458.64 387.873 454.853 386.775 454.583C385.678 454.313 382.714 454.586 382.24 450.796C381.989 448.792 381.709 444.82 381.5 441.521C385.049 446.7 390.13 446.458 390.13 446.458C390.13 446.458 390.028 444.563 392.561 441.312C394.208 439.199 396.28 440.859 397.533 442.282C397.862 442.717 398.203 443.161 398.563 443.615C398.613 443.69 398.648 443.745 398.648 443.745L398.668 443.746C399.954 445.364 401.416 447.063 402.971 448.615C408.12 453.756 412.868 456.46 413.014 459.167C413.159 461.875 403.171 462.424 397.654 460.532Z" fill="white" stroke="#1C1C1C" stroke-miterlimit="10" stroke-linecap="round" stroke-linejoin="round"/>
<path d="M334.869 293.796C334.869 293.796 336.539 350.11 338.759 361.209C340.979 372.308 350.893 435.926 350.893 435.926C350.893 435.926 354.785 437.819 360.471 437.815C366.156 437.811 371.301 437.808 371.301 437.808L372.277 390.427L372.646 321.658L378.084 438.074C378.084 438.074 393.004 438.606 394.614 438.334C396.224 438.062 397.563 437.791 397.563 437.791L407.146 364.142L412.637 315.134L412.944 295.64C412.944 295.64 367.101 294.046 353.777 292.972C340.453 291.898 335.023 291.631 335.023 291.631L334.869 293.796Z" fill="#1C1C1C" stroke="#1C1C1C" stroke-miterlimit="10" stroke-linecap="round" stroke-linejoin="round"/>
<path d="M396.767 393.224C396.651 394.163 396.526 395.034 396.393 395.826" stroke="#1C1C1C" stroke-miterlimit="10" stroke-linecap="round" stroke-linejoin="round"/>
<path d="M398.028 325.431C398.028 325.431 398.96 365.55 397.332 387.327" stroke="#1C1C1C" stroke-miterlimit="10" stroke-linecap="round" stroke-linejoin="round"/>
<path d="M348.849 322.215C348.849 322.215 350.003 348.747 351.135 354.703" stroke="#1C1C1C" stroke-miterlimit="10" stroke-linecap="round" stroke-linejoin="round"/>
<path d="M391.575 305.297V325.557C391.575 325.557 395.408 326.652 399.515 326.926C403.622 327.2 411.288 326.926 411.288 326.926L411.836 319.26L391.575 305.297Z" fill="#1C1C1C" stroke="#1C1C1C" stroke-miterlimit="10" stroke-linecap="round" stroke-linejoin="round"/>
<path d="M335.722 320.903C335.722 320.903 346.126 324.188 350.507 324.462C354.888 324.736 358.994 325.283 358.994 325.283L358.447 319.807L335.175 317.617L335.722 320.903Z" fill="#1C1C1C" stroke="#1C1C1C" stroke-miterlimit="10" stroke-linecap="round" stroke-linejoin="round"/>
<path d="M367.324 167.066L359.154 176.277L336.486 192.808L341.323 292.98C341.323 292.98 359.376 297.842 374.881 299.186C390.386 300.529 410.309 296.995 410.309 296.995L407.377 191.948C407.377 191.948 398.557 178.958 394.036 175.441C389.515 171.924 387.446 168.677 381.46 168.139C375.475 167.602 367.324 167.066 367.324 167.066Z" fill="#1C1C1C" stroke="#1C1C1C" stroke-miterlimit="10" stroke-linecap="round" stroke-linejoin="round"/>
<path d="M357.839 171.946L333.547 188.478L337.359 249.393L336.068 255.506L325.865 267.27L330.211 287.93L328.269 317.085C328.269 317.085 337.919 320.327 344.461 321.135C351.002 321.943 359.125 321.937 359.125 321.937L359.966 282.137C359.966 282.137 363.188 216.073 363.569 213.095C363.951 210.116 367.325 167.066 367.325 167.066L357.839 171.946Z" fill="white" stroke="#1C1C1C" stroke-miterlimit="10" stroke-linecap="round" stroke-linejoin="round"/>
<path d="M358.229 174.492L346.468 203.98L359.164 209.247L347.178 211.427L357.789 253.003" stroke="#1C1C1C" stroke-miterlimit="10" stroke-linecap="round" stroke-linejoin="round"/>
<path d="M365.278 159.216C365.278 159.216 369.497 187.37 372.824 193.866C376.151 200.362 377.079 202.527 377.079 202.527C377.079 202.527 384.295 180.592 385.745 177.342C387.195 174.092 388.736 162.449 388.736 162.449C388.736 162.449 374.363 167.061 365.278 159.216Z" fill="white" stroke="#1C1C1C" stroke-miterlimit="10" stroke-linecap="round" stroke-linejoin="round"/>
<path d="M365.278 159.216C365.278 159.216 365.663 161.78 366.289 165.529C368.398 167.142 373.993 171.121 378.12 171.328C381.268 171.485 385.268 169.446 387.929 167.819C388.416 164.875 388.737 162.45 388.737 162.45C388.737 162.45 374.363 167.061 365.278 159.216Z" fill="#1C1C1C" stroke="#1C1C1C" stroke-miterlimit="10" stroke-linecap="round" stroke-linejoin="round"/>
<path d="M359.554 139.764C359.554 139.764 356.674 135.661 354.726 139.773C352.778 143.885 357.739 149.941 359.112 150.758C363.033 153.092 361.988 148.787 361.988 148.787L359.554 139.764Z" fill="white" stroke="#1C1C1C" stroke-miterlimit="10" stroke-linecap="round" stroke-linejoin="round"/>
<path d="M395.317 141.531C395.317 141.531 397.748 137.288 400.132 141.286C402.516 145.285 398.22 151.583 396.938 152.471C393.279 155.004 393.858 150.657 393.858 150.657L395.317 141.531Z" fill="white" stroke="#1C1C1C" stroke-miterlimit="10" stroke-linecap="round" stroke-linejoin="round"/>
<path d="M358.869 136.144C358.869 136.144 369.312 133.704 374.567 130.587C379.822 127.471 382.838 123.059 382.838 123.059C382.838 123.059 387.364 131.604 391.344 135.019C395.323 138.434 396.15 138.683 396.15 138.683C396.15 138.683 394.242 153.624 392.082 158.825C389.922 164.026 382.873 169.085 376.288 167.633C372.552 166.81 366.067 164.111 364.196 159.558C362.323 155.006 358.869 136.144 358.869 136.144Z" fill="white" stroke="#1C1C1C" stroke-miterlimit="10" stroke-linecap="round" stroke-linejoin="round"/>
<path d="M385.514 147.628C382.265 147.713 371.421 147.728 365.817 144.355C362.728 142.496 360.732 140.862 359.553 139.764C359.754 140.804 359.99 142.01 360.251 143.312L361.47 144.199L364.532 155.761L363.104 156.069C363.497 157.546 363.87 158.771 364.194 159.56C366.066 164.113 372.55 166.812 376.286 167.635C382.858 169.083 389.889 164.048 392.065 158.859C391.65 158.029 391.372 156.934 391.635 155.59C392.273 152.324 393.05 146.618 393.05 146.618L395.278 144.652C395.395 143.917 395.502 143.223 395.598 142.582C392.904 144.387 387.841 147.566 385.514 147.628Z" fill="#1C1C1C" stroke="#1C1C1C" stroke-miterlimit="10" stroke-linecap="round" stroke-linejoin="round"/>
<path d="M373.596 142.797C373.596 142.797 370.114 138.557 365.526 138.948" stroke="#1C1C1C" stroke-miterlimit="10" stroke-linecap="round" stroke-linejoin="round"/>
<path d="M382.589 143.643C382.589 143.643 385.905 139.765 391.378 140.705" stroke="#1C1C1C" stroke-miterlimit="10" stroke-linecap="round" stroke-linejoin="round"/>
<path d="M363.515 136.834C363.515 136.834 368.557 134.806 372.947 135.774" stroke="#1C1C1C" stroke-miterlimit="10" stroke-linecap="round" stroke-linejoin="round"/>
<path d="M383.038 136.863C383.038 136.863 387.149 134.471 391.233 138.001" stroke="#1C1C1C" stroke-miterlimit="10" stroke-linecap="round" stroke-linejoin="round"/>
<path d="M370.236 141.407C370.275 142.132 369.844 142.731 369.274 142.746C368.704 142.761 368.21 142.186 368.171 141.461C368.132 140.736 368.563 140.137 369.133 140.122C369.703 140.107 370.197 140.682 370.236 141.407Z" fill="#1C1C1C"/>
<path d="M388.35 142.714C388.389 143.439 387.958 144.038 387.388 144.053C386.818 144.068 386.324 143.493 386.285 142.768C386.246 142.043 386.677 141.444 387.247 141.429C387.817 141.414 388.311 141.989 388.35 142.714Z" fill="#1C1C1C"/>
<path d="M415.276 182.737C415.276 182.737 421.107 185.44 423.235 189.771C425.363 194.102 442.754 240.658 442.672 244.177C442.59 247.697 436.852 251.762 431.466 252.307C426.08 252.852 418.247 243.111 417.077 241.487C415.907 239.863 415.702 220.911 415.702 220.911L415.276 182.737Z" fill="white" stroke="#1C1C1C" stroke-miterlimit="10" stroke-linecap="round" stroke-linejoin="round"/>
<path d="M387.804 170.301L390.638 263.435L391.626 322.186C391.626 322.186 399.865 324.346 408.258 324.341C416.651 324.335 421.935 321.895 421.935 321.895C421.935 321.895 420.243 285.346 419.924 279.39C419.604 273.434 417.64 262.064 417.64 262.064L415.276 182.738C415.276 182.738 393.335 172.464 387.804 170.301Z" fill="white" stroke="#1C1C1C" stroke-miterlimit="10" stroke-linecap="round" stroke-linejoin="round"/>
<path d="M394.036 175.441L404.11 208.286L394.933 210.775L403.855 215.113L392.721 250.497" fill="white"/>
<path d="M394.036 175.441L404.11 208.286L394.933 210.775L403.855 215.113L392.721 250.497" stroke="#1C1C1C" stroke-miterlimit="10" stroke-linecap="round" stroke-linejoin="round"/>
<path d="M401.065 205.489L388.574 265.332C388.574 265.332 397.112 268.034 403.354 268.3C409.596 268.566 422.591 268.558 422.591 268.558L435.57 212.776C435.57 212.776 409.99 210.357 401.065 205.489Z" fill="#1C1C1C" stroke="#1C1C1C" stroke-miterlimit="10" stroke-linecap="round" stroke-linejoin="round"/>
<path d="M405.414 261.26L405.821 242.563L415.735 244.65C415.735 244.65 409.181 259.085 405.414 261.26Z" fill="white" stroke="#1C1C1C" stroke-miterlimit="10" stroke-linecap="round" stroke-linejoin="round"/>
<path d="M412.981 235.805C412.981 235.805 410.341 232.016 409.485 231.205C408.629 230.393 404.437 227.959 403.625 227.96C402.813 227.96 398.466 227.693 397.654 227.693C396.842 227.694 395.861 229.589 396.716 230.401C397.572 231.213 400.565 231.481 400.565 231.481L402.62 234.458L393.371 233.652C393.371 233.652 391.834 235.277 392.177 236.631C392.52 237.985 393.135 239.338 393.135 239.338C393.135 239.338 393.097 243.67 393.455 245.294C393.813 246.918 395.467 247.459 397.705 248.811C399.944 250.163 407.481 249.346 407.481 249.346L411.001 249.344L412.981 235.805Z" fill="white" stroke="#1C1C1C" stroke-miterlimit="10" stroke-linecap="round" stroke-linejoin="round"/>
<path d="M435.554 237.685L411.554 234.452C411.554 234.452 409.675 249.886 407.785 255.031C405.895 260.176 405.412 261.26 405.412 261.26C405.412 261.26 430.562 260.702 436.489 260.156C442.416 259.611 445.747 256.089 445.485 251.216C445.223 246.343 442.254 241.471 442.254 241.471" fill="white"/>
<path d="M435.554 237.685L411.554 234.452C411.554 234.452 409.675 249.886 407.785 255.031C405.895 260.176 405.412 261.26 405.412 261.26C405.412 261.26 430.562 260.702 436.489 260.156C442.416 259.611 445.747 256.089 445.485 251.216C445.223 246.343 442.254 241.471 442.254 241.471" stroke="#1C1C1C" stroke-miterlimit="10" stroke-linecap="round" stroke-linejoin="round"/>
<path d="M335.469 254.538C335.469 254.538 341.073 258.054 342.485 259.136C343.897 260.218 344.004 267.257 344.889 268.61C345.774 269.963 344.735 270.776 343.11 270.777C341.486 270.778 339.043 265.635 339.043 265.635L338.941 263.74L327.503 267.538L324.519 262.396C324.519 262.396 327.888 254.543 335.469 254.538Z" fill="white" stroke="#1C1C1C" stroke-miterlimit="10" stroke-linecap="round" stroke-linejoin="round"/>
<path d="M252.13 467C281.029 467 304.457 461.716 304.457 455.197C304.457 448.678 281.029 443.394 252.13 443.394C223.23 443.394 199.803 448.678 199.803 455.197C199.803 461.716 223.23 467 252.13 467Z" fill="#1C1C1C" stroke="#1C1C1C" stroke-miterlimit="10" stroke-linecap="round" stroke-linejoin="round"/>
<path d="M292.975 174.794C292.975 174.794 299.841 209.217 301.062 215.59C302.282 221.963 304.517 237.1 307.072 243.74C309.627 250.379 308.776 258.877 307.507 261.267C306.239 263.657 303.137 267.109 303.137 267.109L294.628 255.955C294.628 255.955 289.558 201.515 289.367 193.813C289.176 186.113 292.975 174.794 292.975 174.794Z" fill="white" stroke="#1C1C1C" stroke-miterlimit="10" stroke-linecap="round" stroke-linejoin="round"/>
<path d="M297.518 254.639C297.518 254.639 302.923 258.014 303.867 259.441C304.811 260.868 305.505 262.686 304.765 264.243C304.025 265.8 299.988 270.473 298.972 271.381C297.956 272.29 297.087 268.655 297.01 265.541C296.932 262.426 297.518 254.639 297.518 254.639Z" fill="white" stroke="#1C1C1C" stroke-miterlimit="10" stroke-linecap="round" stroke-linejoin="round"/>
<path d="M268.479 443.442C268.479 443.442 285.414 451.674 286.516 453.268C287.618 454.861 283.687 456.986 273.596 456.986C263.505 456.986 263.206 455.658 259.196 454.596C255.186 453.534 247.239 454.33 246.118 451.94C244.996 449.55 246.916 441.318 246.916 441.318L268.479 443.442Z" fill="white" stroke="#1C1C1C" stroke-miterlimit="10" stroke-linecap="round" stroke-linejoin="round"/>
<path d="M246.011 447.691C246.011 447.691 260.031 456.189 258.776 459.11C257.521 462.031 247.429 462.031 242.098 461.235C236.767 460.438 225.435 453.268 224.838 450.613C224.241 447.957 225.735 443.974 233.948 443.177C242.162 442.38 246.011 447.691 246.011 447.691Z" fill="white" stroke="#1C1C1C" stroke-miterlimit="10" stroke-linecap="round" stroke-linejoin="round"/>
<path d="M288.505 308.802C288.505 308.802 280.475 370.412 279.105 379.442C277.736 388.471 273.312 402.811 270.926 413.699C268.541 424.587 268.201 432.288 267.955 433.085C267.709 433.882 267.762 436.006 268.093 438.662C268.425 441.318 268.477 443.442 268.477 443.442C268.477 443.442 262.143 445.035 257.635 445.301C253.127 445.567 247.019 445.567 247.019 445.567L244.997 428.305C244.997 428.305 246.488 402.811 247.366 395.375C248.244 387.939 249.183 329.516 249.143 327.922C249.103 326.329 248.754 312.254 248.754 312.254L276.034 309.333C276.034 309.333 279.754 298.71 285.344 299.242C290.936 299.773 288.505 308.802 288.505 308.802Z" fill="white" stroke="#1C1C1C" stroke-miterlimit="10" stroke-linecap="round" stroke-linejoin="round"/>
<path d="M285.345 299.242C279.755 298.711 276.035 309.333 276.035 309.333L248.755 312.254C248.755 312.254 248.848 315.991 248.943 319.832C251.846 320.089 254.541 320.243 256.834 320.243C271.042 320.243 283.009 318.773 283.009 318.773L284.175 306.524L285.955 319.018L287.221 318.609C287.998 312.67 288.503 308.801 288.503 308.801C288.503 308.801 290.935 299.773 285.345 299.242Z" fill="#1C1C1C" stroke="#1C1C1C" stroke-miterlimit="10" stroke-linecap="round" stroke-linejoin="round"/>
<path d="M220.302 310.661C220.302 310.661 220.321 311.037 220.357 311.73C220.734 318.994 222.927 361.061 223.605 368.819C224.347 377.317 220.595 386.612 220.786 394.313C220.977 402.014 222.809 443.708 222.809 443.708L224.839 450.613C224.839 450.613 229.54 447.426 234.055 447.426C238.569 447.426 246.012 447.692 246.012 447.692C246.012 447.692 246.405 442.115 246.359 440.256C246.313 438.397 246.148 431.758 246.148 431.758C246.148 431.758 253.782 396.969 254.241 394.048C254.7 391.127 260.617 340.67 260.577 339.077C260.538 337.484 261.836 314.911 261.836 314.911L220.302 310.661Z" fill="white" stroke="#1C1C1C" stroke-miterlimit="10" stroke-linecap="round" stroke-linejoin="round"/>
<path d="M261.535 320.191C261.708 317.113 261.835 314.91 261.835 314.91L220.302 310.661C220.302 310.661 220.321 311.037 220.357 311.73C220.402 312.606 220.475 313.997 220.567 315.763C230.28 317.502 247.131 320.244 256.836 320.244C258.436 320.244 260.006 320.224 261.535 320.191Z" fill="#1C1C1C" stroke="#1C1C1C" stroke-miterlimit="10" stroke-linecap="round" stroke-linejoin="round"/>
<path d="M250.9 147.602C250.9 147.602 246.509 148.337 244.843 150.297C243.177 152.257 240.567 155.686 240.341 156.421C240.114 157.156 214.292 172.834 214.292 172.834L216.147 247.551C216.147 247.551 216.923 259.065 215.55 262.984C214.178 266.904 211.983 277.192 212.221 286.746C212.458 296.3 213.086 311.733 213.086 311.733C213.086 311.733 242.629 317.612 256.837 317.612C271.045 317.612 283.013 316.142 283.013 316.142L284.179 303.893L285.959 316.386L292.035 314.426L296.996 277.435C296.996 277.435 300.476 269.596 300.433 267.881C300.391 266.166 301.316 263.961 300.299 262.492C299.283 261.022 297.495 258.082 297.495 258.082C297.495 258.082 293.032 176.996 292.977 174.791C292.922 172.586 279.616 159.603 278.624 159.113C277.632 158.623 271.528 149.559 263.628 147.109C255.726 144.662 250.9 147.602 250.9 147.602Z" fill="white" stroke="#1C1C1C" stroke-miterlimit="10" stroke-linecap="round" stroke-linejoin="round"/>
<path d="M242.85 158.87L239.887 185.784L252.052 191.432L249.011 200.556L279.424 253.997" stroke="#1C1C1C" stroke-miterlimit="10" stroke-linecap="round" stroke-linejoin="round"/>
<path d="M276.817 161.888L285.941 183.177L282.031 188.391L288.548 197.515L285.941 256.169" stroke="#1C1C1C" stroke-miterlimit="10" stroke-linecap="round" stroke-linejoin="round"/>
<path d="M249.766 151.276C249.766 151.276 249.967 159.36 252.599 166.709C255.231 174.058 272.658 224.767 272.658 224.767L283.932 264.453C283.932 264.453 282.438 224.033 282.396 222.318C282.353 220.603 273.856 164.505 273.856 164.505C273.856 164.505 272.406 155.441 270.116 152.011C267.827 148.582 252.48 142.212 249.766 151.276Z" fill="#1C1C1C" stroke="#1C1C1C" stroke-miterlimit="10" stroke-linecap="round" stroke-linejoin="round"/>
<path d="M248.689 147.357C248.689 147.357 241.603 148.092 242.851 158.871C244.098 169.65 245.751 176.999 245.751 176.999" stroke="#1C1C1C" stroke-width="2" stroke-miterlimit="10" stroke-linecap="round" stroke-linejoin="round"/>
<path d="M244.878 191.207C244.878 191.207 247.883 203.7 249.928 207.13C251.973 210.56 258.182 213.989 262.592 213.989" stroke="#1C1C1C" stroke-miterlimit="10" stroke-linecap="round" stroke-linejoin="round"/>
<path d="M254.359 188.267C254.359 188.267 257.658 202.72 258.214 205.415C258.771 208.11 256.939 213.254 253.882 218.399" stroke="#1C1C1C" stroke-miterlimit="10" stroke-linecap="round" stroke-linejoin="round"/>
<path d="M252.948 220.13C252.294 219.759 252.051 218.935 252.406 218.29L252.756 217.653C253.111 217.008 253.929 216.786 254.583 217.157C255.237 217.528 255.48 218.351 255.125 218.997L254.774 219.634C254.42 220.279 253.602 220.501 252.948 220.13Z" fill="#1C1C1C"/>
<path d="M264.226 214.264C264.224 215.008 263.619 215.594 262.874 215.573L262.139 215.553C261.395 215.532 260.793 214.913 260.795 214.169C260.797 213.425 261.402 212.839 262.147 212.86L262.882 212.88C263.627 212.9 264.228 213.52 264.226 214.264Z" fill="#1C1C1C"/>
<path d="M244.902 192.187L243.218 181.541C242.854 179.241 244.288 177.083 246.534 176.552C248.929 175.985 251.382 177.464 252.032 179.867L254.903 190.472" stroke="#1C1C1C" stroke-width="2" stroke-miterlimit="10" stroke-linecap="round" stroke-linejoin="round"/>
<path d="M284.428 199.382C286.833 199.141 288.556 196.695 288.278 193.919C288 191.143 285.825 189.088 283.421 189.329C281.016 189.57 279.292 192.016 279.57 194.792C279.848 197.568 282.023 199.623 284.428 199.382Z" fill="white" stroke="#1C1C1C" stroke-miterlimit="10" stroke-linecap="round" stroke-linejoin="round"/>
<path d="M272.126 151.855C272.126 151.855 281.757 165.399 284.833 193.017" stroke="#1C1C1C" stroke-width="2" stroke-miterlimit="10" stroke-linecap="round" stroke-linejoin="round"/>
<path d="M287.233 193.415C287.271 194.955 286.232 196.203 284.912 196.203C283.592 196.203 282.491 194.955 282.453 193.415C282.415 191.875 283.454 190.627 284.774 190.627C286.094 190.627 287.195 191.876 287.233 193.415Z" fill="white" stroke="#1C1C1C" stroke-miterlimit="10" stroke-linecap="round" stroke-linejoin="round"/>
<path d="M299.163 256.752C299.163 256.752 297.688 261.532 297.708 262.329C297.728 263.126 297.521 265.516 295.649 264.985C293.777 264.454 294.336 254.894 294.575 253.831C294.814 252.769 299.373 256.196 299.373 256.196" fill="white"/>
<path d="M299.163 256.752C299.163 256.752 297.688 261.532 297.708 262.329C297.728 263.126 297.521 265.516 295.649 264.985C293.777 264.454 294.336 254.894 294.575 253.831C294.814 252.769 299.373 256.196 299.373 256.196" stroke="#1C1C1C" stroke-miterlimit="10" stroke-linecap="round" stroke-linejoin="round"/>
<path d="M238.456 248.285C238.456 248.285 240.942 249.755 243.882 249.755C246.822 249.755 252.187 248.775 254.159 249.265C256.131 249.755 261.189 256.124 261.189 256.124C261.189 256.124 262.695 257.594 261.979 258.329C261.262 259.064 259.823 260.289 258.825 259.554C257.827 258.819 252.824 254.655 252.824 254.655L240.213 259.799L235.002 257.104L238.456 248.285Z" fill="white" stroke="#1C1C1C" stroke-miterlimit="10" stroke-linecap="round" stroke-linejoin="round"/>
<path d="M219.147 171.119C219.147 171.119 210.842 172.099 209.427 174.304C208.012 176.509 185.245 226.483 185.3 228.688C185.355 230.893 230.828 266.659 230.828 266.659L240.655 248.041L216.082 225.259L226.736 200.517" fill="white"/>
<path d="M219.147 171.119C219.147 171.119 210.842 172.099 209.427 174.304C208.012 176.509 185.245 226.483 185.3 228.688C185.355 230.893 230.828 266.659 230.828 266.659L240.655 248.041L216.082 225.259L226.736 200.517" stroke="#1C1C1C" stroke-miterlimit="10" stroke-linecap="round" stroke-linejoin="round"/>
<path d="M234.483 275.722L258.503 276.212L258.376 261.269" stroke="#1C1C1C" stroke-miterlimit="10" stroke-linecap="round" stroke-linejoin="round"/>
<path d="M240.212 259.799L233.857 262.165" stroke="#1C1C1C" stroke-miterlimit="10" stroke-linecap="round" stroke-linejoin="round"/>
<path d="M247.447 136.823C247.447 136.823 250.181 158.136 251.975 161.32C253.769 164.505 266.579 177.243 266.579 177.243C266.579 177.243 270.623 162.545 271.028 159.115C271.433 155.685 271.827 141.967 271.827 141.967L247.404 135.108L247.447 136.823Z" fill="white" stroke="#1C1C1C" stroke-miterlimit="10" stroke-linecap="round" stroke-linejoin="round"/>
<path d="M247.447 136.823C247.447 136.823 247.767 139.321 248.261 142.733C249.959 144.284 252.19 145.955 254.738 147.075C257.893 148.462 266.291 149.24 271.604 148.622C271.739 145.03 271.827 141.968 271.827 141.968L247.405 135.109L247.447 136.823Z" fill="#1C1C1C" stroke="#1C1C1C" stroke-miterlimit="10" stroke-linecap="round" stroke-linejoin="round"/>
<path d="M240.371 118.205C240.371 118.205 237.101 114.775 235.484 118.695C233.867 122.615 237.442 128.494 239.408 128.739C241.374 128.984 242.832 128.494 242.832 128.494C242.832 128.494 244.197 134.128 245.464 135.843C246.731 137.558 250.28 141.22 254.738 143.18C259.196 145.14 274.13 145.887 276.023 143.192C277.916 140.497 277.802 126.044 277.772 124.819C277.742 123.594 277.528 106.14 277.528 106.14C277.528 106.14 278.873 100.077 277.055 95.912C275.237 91.748 256.963 85.868 252.369 88.318C247.775 90.768 242.489 94.932 242.133 100.322C241.777 105.711 241.996 114.53 241.996 114.53L240.371 118.205Z" fill="white" stroke="#1C1C1C" stroke-miterlimit="10" stroke-linecap="round" stroke-linejoin="round"/>
<path d="M267.374 110.611C267.374 110.611 270.415 124.574 269.723 126.289C269.031 128.004 266.826 128.004 264.095 126.534C261.364 125.064 262.785 123.104 262.785 123.104" stroke="#1C1C1C" stroke-miterlimit="10" stroke-linecap="round" stroke-linejoin="round"/>
<path d="M256.752 126.779C256.752 126.779 258.068 130.454 260.524 130.698C262.98 130.943 269.116 131.433 269.116 131.433" stroke="#1C1C1C" stroke-miterlimit="10" stroke-linecap="round" stroke-linejoin="round"/>
<path d="M248.033 111.101L248.424 116.98C248.424 116.98 250.659 118.205 255.804 118.205C260.948 118.205 262.633 116.98 262.633 116.98L262.487 111.101C262.487 111.101 255.028 106.691 248.033 111.101Z" stroke="#1C1C1C" stroke-miterlimit="10" stroke-linecap="round" stroke-linejoin="round"/>
<path d="M267.386 111.101L269.253 117.225C269.253 117.225 270.012 118.205 275.157 118.205C280.301 118.205 281.986 116.98 281.986 116.98L281.84 111.101C281.84 111.101 274.381 106.691 267.386 111.101Z" stroke="#1C1C1C" stroke-miterlimit="10" stroke-linecap="round" stroke-linejoin="round"/>
<path d="M262.487 111.101H267.386" stroke="#1C1C1C" stroke-miterlimit="10" stroke-linecap="round" stroke-linejoin="round"/>
<path d="M248.033 111.101L238.374 116.735" stroke="#1C1C1C" stroke-miterlimit="10" stroke-linecap="round" stroke-linejoin="round"/>
<path d="M250.41 108.161C250.41 108.161 253.032 105.221 258.972 107.671" stroke="#1C1C1C" stroke-miterlimit="10" stroke-linecap="round" stroke-linejoin="round"/>
<path d="M268.293 108.161C268.293 108.161 271.172 105.711 274.644 107.426" stroke="#1C1C1C" stroke-miterlimit="10" stroke-linecap="round" stroke-linejoin="round"/>
<path d="M256.674 113.796C256.701 114.878 256.284 115.756 255.743 115.756C255.202 115.756 254.741 114.879 254.715 113.796C254.688 112.714 255.105 111.836 255.646 111.836C256.187 111.836 256.647 112.713 256.674 113.796Z" fill="#1C1C1C"/>
<path d="M272.346 113.551C272.373 114.633 271.956 115.511 271.415 115.511C270.874 115.511 270.413 114.633 270.386 113.551C270.359 112.469 270.776 111.591 271.317 111.591C271.859 111.591 272.32 112.468 272.346 113.551Z" fill="#1C1C1C"/>
<path d="M255.573 90.89C255.573 90.89 257.934 96.098 255.005 97.957C252.075 99.817 249.053 97.957 249.053 97.957C249.053 97.957 251.74 101.305 249.238 105.396C246.736 109.488 244.197 112.092 244.197 112.092C244.197 112.092 244.726 118.416 243.629 119.159C242.531 119.903 239.528 118.787 239.482 116.927C239.436 115.067 238.227 111.347 238.181 109.488C238.135 107.628 237.271 102.792 237.271 102.792C237.271 102.792 229.748 99.444 233.738 95.353C237.728 91.261 246.2 87.914 246.2 87.914C246.2 87.914 246.387 80.474 251.539 78.243C256.691 76.011 267.767 72.663 267.86 76.383C267.952 80.103 266.883 81.963 266.883 81.963C266.883 81.963 276.173 81.591 282.654 87.915C289.135 94.239 288.91 100.19 285.563 100.19C282.215 100.19 281.118 100.934 281.118 100.934C281.118 100.934 287.534 104.654 284.232 106.514C280.93 108.374 277.527 106.142 277.527 106.142C277.527 106.142 278.95 103.538 274.775 100.19C270.6 96.841 255.573 90.89 255.573 90.89Z" fill="#1C1C1C" stroke="#1C1C1C" stroke-miterlimit="10" stroke-linecap="round" stroke-linejoin="round"/>
<path d="M128.683 467C157.582 467 181.01 461.716 181.01 455.197C181.01 448.678 157.582 443.394 128.683 443.394C99.7835 443.394 76.356 448.678 76.356 455.197C76.356 461.716 99.7835 467 128.683 467Z" fill="#1C1C1C" stroke="#1C1C1C" stroke-miterlimit="10" stroke-linecap="round" stroke-linejoin="round"/>
<path d="M163.138 211.13V220.688L177.041 227.06C177.041 227.06 178.489 220.688 177.331 209.392L163.138 211.13Z" fill="white" stroke="#1C1C1C" stroke-miterlimit="10" stroke-linecap="round" stroke-linejoin="round"/>
<path d="M94.1508 440.543C94.1508 440.543 89.1048 444.792 85.1218 449.307C81.1388 453.821 80.3418 458.336 84.0598 460.461C87.7778 462.586 93.6198 462.054 99.9938 458.071C106.368 454.088 106.102 452.494 109.82 451.166C113.538 449.838 115.928 447.183 115.928 442.934C115.928 438.685 102.384 438.154 99.4628 437.888C96.5408 437.621 94.1508 440.543 94.1508 440.543Z" fill="white" stroke="#1C1C1C" stroke-miterlimit="10" stroke-linecap="round" stroke-linejoin="round"/>
<path d="M115.927 442.933C115.927 442.933 109.929 445.587 107.024 448.008C104.119 450.429 98.309 459.144 91.53 459.144C86.915 459.144 83.426 457.574 81.666 456.571C81.697 458.183 82.457 459.545 84.059 460.46C87.777 462.585 93.619 462.053 99.993 458.07C106.367 454.087 106.101 452.493 109.819 451.165C113.537 449.837 115.927 447.182 115.927 442.933Z" stroke="#1C1C1C" stroke-miterlimit="10" stroke-linecap="round" stroke-linejoin="round"/>
<path d="M161.539 440.543C161.539 440.543 166.585 444.792 170.568 449.307C174.551 453.821 175.348 458.336 171.63 460.461C167.912 462.586 162.07 462.054 155.696 458.071C149.322 454.088 149.588 452.494 145.87 451.166C142.152 449.838 139.762 447.183 139.762 442.934C139.762 438.685 153.306 438.154 156.227 437.888C159.149 437.621 161.539 440.543 161.539 440.543Z" fill="white" stroke="#1C1C1C" stroke-miterlimit="10" stroke-linecap="round" stroke-linejoin="round"/>
<path d="M139.763 442.933C139.763 442.933 145.761 445.587 148.666 448.008C151.571 450.429 157.381 459.144 164.16 459.144C168.775 459.144 172.264 457.574 174.024 456.571C173.993 458.183 173.233 459.545 171.631 460.46C167.913 462.585 162.071 462.053 155.697 458.07C149.323 454.087 149.589 452.493 145.871 451.165C142.153 449.837 139.763 447.182 139.763 442.933Z" stroke="#1C1C1C" stroke-miterlimit="10" stroke-linecap="round" stroke-linejoin="round"/>
<path d="M86.4497 289.703C86.4497 289.703 88.0427 349.454 88.8397 358.218C89.6367 366.981 92.0267 386.899 92.0267 387.961C92.0267 389.023 93.3547 433.107 93.3547 433.107L90.9647 437.09L91.7617 442.667C91.7617 442.667 97.0727 443.729 102.384 444.791C107.695 445.853 114.6 447.447 115.662 446.384C116.724 445.322 116.99 443.197 117.521 440.276C118.052 437.355 119.114 432.044 118.052 427.794C116.99 423.545 119.38 378.4 119.645 377.337C119.911 376.275 126.018 332.723 126.018 332.723C126.018 332.723 130.001 368.574 132.923 379.462C135.844 390.35 134.782 406.549 135.844 412.923C136.906 419.297 139.031 440.807 139.296 442.4C139.562 443.993 140.093 446.383 140.093 446.383C140.093 446.383 153.371 444.524 155.761 443.462C158.151 442.4 163.197 441.337 163.197 441.337C163.197 441.337 163.994 426.2 162.931 420.092C161.869 413.984 161.603 408.938 161.603 407.08C161.603 405.221 162.931 346.266 162.931 346.266L161.603 289.17C161.603 289.17 125.752 292.888 111.943 290.232C98.1337 287.576 86.7147 285.983 86.7147 285.983L86.4497 289.703Z" fill="#1C1C1C" stroke="#1C1C1C" stroke-miterlimit="10" stroke-linecap="round" stroke-linejoin="round"/>
<path d="M111.944 290.235C98.1347 287.579 86.7157 285.986 86.7157 285.986L86.4497 289.704C86.4497 289.704 86.5407 293.128 86.6907 298.449C93.0187 300.222 105.883 303.329 118.307 303.329C131.453 303.329 152.377 299.353 161.796 297.416L161.604 289.172C161.604 289.172 125.753 292.89 111.944 290.235Z" fill="#1C1C1C" stroke="#1C1C1C" stroke-miterlimit="10" stroke-linecap="round" stroke-linejoin="round"/>
<path d="M158.07 424.793C158.243 426.625 158.347 427.672 158.347 427.672" stroke="#1C1C1C" stroke-miterlimit="10" stroke-linecap="round" stroke-linejoin="round"/>
<path d="M153.99 303.721C153.99 303.721 154.958 355.044 154.958 374.412C154.958 387.807 156.579 408.15 157.579 419.423" stroke="#1C1C1C" stroke-miterlimit="10" stroke-linecap="round" stroke-linejoin="round"/>
<path d="M100.245 300.816L102.666 356.497" stroke="#1C1C1C" stroke-miterlimit="10" stroke-linecap="round" stroke-linejoin="round"/>
<path d="M102.182 360.854V370.054" stroke="#1C1C1C" stroke-miterlimit="10" stroke-linecap="round" stroke-linejoin="round"/>
<path d="M114.767 149.436C114.767 149.436 111.002 149.146 108.105 152.912C105.209 156.677 102.602 158.995 102.602 158.995L78.8511 171.739L81.1681 262.398L82.0371 293.39C82.0371 293.39 100.285 299.472 117.663 299.472C135.042 299.472 166.034 292.521 166.034 292.521C166.034 292.521 163.427 171.739 164.296 171.739C165.165 171.739 147.207 156.098 139.097 152.043C130.987 147.987 114.767 149.436 114.767 149.436Z" fill="#1C1C1C" stroke="#1C1C1C" stroke-miterlimit="10" stroke-linecap="round" stroke-linejoin="round"/>
<path d="M107.992 160.403C107.992 160.403 117.191 177.349 121.065 185.096C124.938 192.843 132.201 203.979 132.201 203.979L144.306 171.539" stroke="#1C1C1C" stroke-miterlimit="10" stroke-linecap="round" stroke-linejoin="round"/>
<path d="M114.8 267.907L114.334 254.384L86.981 252.791C86.981 252.791 87.247 272.708 87.778 273.77" stroke="#1C1C1C" stroke-miterlimit="10" stroke-linecap="round" stroke-linejoin="round"/>
<path d="M115.13 277.488L115 273.694" stroke="#1C1C1C" stroke-miterlimit="10" stroke-linecap="round" stroke-linejoin="round"/>
<path d="M147.529 275.363L146.732 253.056C146.732 253.056 156.292 253.853 164.259 248.541" stroke="#1C1C1C" stroke-miterlimit="10" stroke-linecap="round" stroke-linejoin="round"/>
<path d="M106.545 199.92C107.394 202.574 109.951 204.128 112.256 203.391C114.561 202.654 115.741 199.905 114.892 197.25C114.043 194.596 111.486 193.042 109.181 193.779C106.877 194.516 105.696 197.266 106.545 199.92Z" stroke="#1C1C1C" stroke-miterlimit="10" stroke-linecap="round" stroke-linejoin="round"/>
<path d="M106.824 153.523C106.824 153.523 103.746 165.323 110.726 197.347" stroke="#1C1C1C" stroke-width="2" stroke-miterlimit="10" stroke-linecap="round" stroke-linejoin="round"/>
<path d="M112.881 198.454C112.412 199.921 111.012 200.784 109.755 200.382C108.498 199.98 107.859 198.465 108.328 196.998C108.797 195.531 110.197 194.668 111.454 195.07C112.711 195.472 113.35 196.988 112.881 198.454Z" stroke="#1C1C1C" stroke-miterlimit="10" stroke-linecap="round" stroke-linejoin="round"/>
<path d="M163.138 170.001C163.138 170.001 167.483 173.187 167.772 174.346C168.062 175.505 182.834 210.841 182.834 210.841L161.4 214.027L161.69 193.172" fill="#1C1C1C"/>
<path d="M163.138 170.001C163.138 170.001 167.483 173.187 167.772 174.346C168.062 175.505 182.834 210.841 182.834 210.841L161.4 214.027L161.69 193.172" stroke="#1C1C1C" stroke-miterlimit="10" stroke-linecap="round" stroke-linejoin="round"/>
<path d="M81.7469 170.58C81.7469 170.58 76.8229 171.159 75.6649 174.925C74.5069 178.691 66.1069 216.924 66.1069 216.924L96.8089 214.028L93.9129 185.353" fill="#1C1C1C"/>
<path d="M81.7469 170.58C81.7469 170.58 76.8229 171.159 75.6649 174.925C74.5069 178.691 66.1069 216.924 66.1069 216.924L96.8089 214.028L93.9129 185.353" stroke="#1C1C1C" stroke-miterlimit="10" stroke-linecap="round" stroke-linejoin="round"/>
<path d="M141.05 151.717C141.05 151.717 148.662 156.064 149.405 166.861C150.148 177.659 149.383 180.399 149.383 180.399" stroke="#1C1C1C" stroke-width="2" stroke-miterlimit="10" stroke-linecap="round" stroke-linejoin="round"/>
<path d="M152.847 194.234C152.847 194.234 152.17 206.997 150.779 210.694C149.388 214.391 143.886 218.75 139.533 219.449" stroke="#1C1C1C" stroke-miterlimit="10" stroke-linecap="round" stroke-linejoin="round"/>
<path d="M142.948 192.848C142.948 192.848 142.34 207.585 142.284 210.323C142.228 213.061 144.979 217.83 148.94 222.403" stroke="#1C1C1C" stroke-miterlimit="10" stroke-linecap="round" stroke-linejoin="round"/>
<path d="M150.118 224.007L150.241 223.908C150.785 223.467 150.869 222.668 150.427 222.124L149.865 221.43C149.424 220.886 148.625 220.802 148.081 221.243L147.958 221.342C147.414 221.783 147.33 222.582 147.771 223.126L148.333 223.819C148.775 224.365 149.574 224.448 150.118 224.007Z" fill="#1C1C1C"/>
<path d="M137.955 219.901L137.984 220.056C138.114 220.744 138.778 221.197 139.466 221.066L140.343 220.9C141.031 220.77 141.484 220.106 141.353 219.418L141.324 219.263C141.194 218.575 140.53 218.122 139.842 218.253L138.965 218.419C138.277 218.549 137.825 219.213 137.955 219.901Z" fill="#1C1C1C"/>
<path d="M153.003 195.201L152.715 184.465C152.653 182.146 150.841 180.251 148.527 180.085C146.059 179.908 143.908 181.751 143.706 184.218L142.815 195.102" stroke="#1C1C1C" stroke-width="2" stroke-miterlimit="10" stroke-linecap="round" stroke-linejoin="round"/>
<path d="M177.91 219.82L170.959 218.372L146.629 214.317L112.506 207.817L104.418 204.247C104.418 204.247 96.7748 194.278 96.1098 193.281C95.4448 192.284 86.8048 195.773 87.1378 197.103C87.4698 198.432 88.4668 211.725 89.1318 212.556C89.7968 213.387 97.2738 213.387 97.2738 213.387C97.2738 213.387 132.908 230.589 134.395 231.216C154.966 239.894 164.877 239.806 168.353 240.385C171.829 240.964 174.15 239.534 176.175 237.208C178.2 234.882 177.91 219.82 177.91 219.82Z" fill="white" stroke="#1C1C1C" stroke-miterlimit="10" stroke-linecap="round" stroke-linejoin="round"/>
<path d="M95.1128 193.115C95.1128 193.115 90.9588 193.281 84.8108 197.435C82.5198 198.983 81.3218 200.094 81.3218 200.758C81.3218 201.423 81.9868 203.084 81.9868 203.084C81.9868 203.084 88.7998 199.761 94.4488 198.598" fill="white"/>
<path d="M95.1128 193.115C95.1128 193.115 90.9588 193.281 84.8108 197.435C82.5198 198.983 81.3218 200.094 81.3218 200.758C81.3218 201.423 81.9868 203.084 81.9868 203.084C81.9868 203.084 88.7998 199.761 94.4488 198.598" stroke="#1C1C1C" stroke-miterlimit="10" stroke-linecap="round" stroke-linejoin="round"/>
<path d="M96.7738 203.749C96.7738 203.749 85.4748 206.574 83.6468 206.906C81.8188 207.238 81.4868 205.411 81.4868 204.746C81.4868 204.081 81.9848 203.085 83.9788 202.087C85.9728 201.09 95.9418 198.431 95.9418 198.431" fill="white"/>
<path d="M96.7738 203.749C96.7738 203.749 85.4748 206.574 83.6468 206.906C81.8188 207.238 81.4868 205.411 81.4868 204.746C81.4868 204.081 81.9848 203.085 83.9788 202.087C85.9728 201.09 95.9418 198.431 95.9418 198.431" stroke="#1C1C1C" stroke-miterlimit="10" stroke-linecap="round" stroke-linejoin="round"/>
<path d="M97.937 208.9C97.937 208.9 84.81 210.229 83.814 209.399C82.817 208.568 82.983 206.907 82.983 206.907L94.78 204.415" fill="white"/>
<path d="M97.937 208.9C97.937 208.9 84.81 210.229 83.814 209.399C82.817 208.568 82.983 206.907 82.983 206.907L94.78 204.415" stroke="#1C1C1C" stroke-miterlimit="10" stroke-linecap="round" stroke-linejoin="round"/>
<path d="M94.282 209.564L84.146 210.063C84.146 210.063 84.644 211.558 85.143 211.725C85.642 211.891 90.46 212.888 92.454 212.888C94.448 212.888 97.273 213.386 97.273 213.386" fill="white"/>
<path d="M94.282 209.564L84.146 210.063C84.146 210.063 84.644 211.558 85.143 211.725C85.642 211.891 90.46 212.888 92.454 212.888C94.448 212.888 97.273 213.386 97.273 213.386" stroke="#1C1C1C" stroke-miterlimit="10" stroke-linecap="round" stroke-linejoin="round"/>
<path d="M72.479 216.344C72.479 216.344 77.113 236.33 78.272 237.778C79.431 239.226 88.989 237.778 98.547 234.882C108.105 231.986 148.656 214.607 148.656 214.607L154.449 215.766C154.449 215.766 152.132 208.525 148.077 208.235C144.022 207.945 96.81 214.028 96.81 214.028L72.479 216.344Z" fill="white" stroke="#1C1C1C" stroke-miterlimit="10" stroke-linecap="round" stroke-linejoin="round"/>
<path d="M113.029 136.691C113.029 136.691 113.036 137.118 113.054 137.849C113.145 141.664 113.505 153.76 114.477 156.677C115.636 160.153 131.276 189.407 132.435 187.09C133.594 184.773 140.835 153.201 140.835 153.201V140.746C140.835 140.746 137.07 143.932 130.118 143.932C123.167 143.932 113.029 136.691 113.029 136.691Z" fill="white" stroke="#1C1C1C" stroke-miterlimit="10" stroke-linecap="round" stroke-linejoin="round"/>
<path d="M136.201 153.845C137.408 153.174 139.172 151.883 140.835 150.545V140.745C140.835 140.745 137.07 143.931 130.118 143.931C123.167 143.931 113.029 136.69 113.029 136.69C113.029 136.69 113.036 137.117 113.054 137.848C113.086 139.19 113.152 141.563 113.266 144.194C113.574 144.666 113.884 145.097 114.188 145.444C116.216 147.761 125.774 153.554 128.091 154.133C130.408 154.714 133.594 155.294 136.201 153.845Z" fill="#1C1C1C" stroke="#1C1C1C" stroke-miterlimit="10" stroke-linecap="round" stroke-linejoin="round"/>
<path d="M147.787 119.892C147.787 119.892 152.421 117.285 152.421 122.209C152.421 127.133 148.076 132.926 148.076 132.926L147.787 119.892Z" fill="white" stroke="#1C1C1C" stroke-miterlimit="10" stroke-linecap="round" stroke-linejoin="round"/>
<path d="M106.367 120.181C106.367 120.181 99.9951 118.443 99.9951 124.236C99.9951 130.029 105.788 133.794 105.788 133.794H109.843C109.843 133.794 112.16 139.587 114.188 141.904C116.215 144.221 125.774 150.014 128.091 150.593C130.408 151.172 133.594 151.752 136.201 150.303C138.808 148.855 144.021 144.51 145.18 143.062C146.339 141.614 148.366 131.766 148.366 131.766C148.366 131.766 148.945 114.098 147.787 108.015C146.628 101.933 139.098 92.374 128.67 91.216C118.243 90.057 108.395 98.457 106.947 105.119C105.498 111.782 106.367 120.181 106.367 120.181Z" fill="white" stroke="#1C1C1C" stroke-miterlimit="10" stroke-linecap="round" stroke-linejoin="round"/>
<path d="M125.194 124.816C125.194 124.816 123.166 128.871 126.642 130.03C130.118 131.189 134.462 130.899 135.331 129.161C136.2 127.423 134.752 125.396 134.752 125.396" stroke="#1C1C1C" stroke-miterlimit="10" stroke-linecap="round" stroke-linejoin="round"/>
<path d="M121.718 132.057C121.718 132.057 128.959 138.14 138.807 132.347" stroke="#1C1C1C" stroke-miterlimit="10" stroke-linecap="round" stroke-linejoin="round"/>
<path d="M125.773 137.56C125.773 137.56 131.856 141.036 135.911 136.981" stroke="#1C1C1C" stroke-miterlimit="10" stroke-linecap="round" stroke-linejoin="round"/>
<path d="M122.298 121.34C123.098 121.34 123.746 120.303 123.746 119.023C123.746 117.743 123.098 116.706 122.298 116.706C121.498 116.706 120.85 117.743 120.85 119.023C120.85 120.303 121.498 121.34 122.298 121.34Z" fill="#1C1C1C"/>
<path d="M137.939 118.733C137.939 120.013 137.291 121.05 136.491 121.05C135.691 121.05 135.043 120.013 135.043 118.733C135.043 117.453 135.691 116.416 136.491 116.416C137.29 116.416 137.939 117.453 137.939 118.733Z" fill="#1C1C1C"/>
<path d="M118.243 115.837C118.243 115.837 119.691 113.52 125.194 114.389" stroke="#1C1C1C" stroke-miterlimit="10" stroke-linecap="round" stroke-linejoin="round"/>
<path d="M134.173 114.678C134.173 114.678 136.78 110.623 140.835 114.678" stroke="#1C1C1C" stroke-miterlimit="10" stroke-linecap="round" stroke-linejoin="round"/>
<path d="M147.787 108.016C147.506 106.54 146.843 104.859 145.861 103.144C145.586 104.953 145.29 106.917 145.51 108.02C145.933 110.137 147.415 113.101 147.415 114.583C147.415 116.065 147.203 121.993 148.262 121.146C148.34 121.083 148.422 120.952 148.506 120.774C148.481 115.961 148.314 110.787 147.787 108.016Z" fill="#1C1C1C" stroke="#1C1C1C" stroke-miterlimit="10" stroke-linecap="round" stroke-linejoin="round"/>
<path d="M133.231 95.9519C135.777 95.8109 137.733 95.4829 138.766 95.2799C135.899 93.1919 132.481 91.6399 128.67 91.2169C118.243 90.0579 108.395 98.4579 106.947 105.12C105.499 111.782 106.368 120.182 106.368 120.182C106.368 120.182 108.673 121.782 109.52 120.088C110.367 118.394 109.52 115.642 110.367 112.678C111.214 109.714 112.484 108.232 112.696 105.903C112.908 103.574 111.426 100.187 112.273 98.2809C113.12 96.3759 118.413 92.7759 121.8 94.0469C125.186 95.3169 129.42 96.1639 133.231 95.9519Z" fill="#1C1C1C" stroke="#1C1C1C" stroke-miterlimit="10" stroke-linecap="round" stroke-linejoin="round"/>
</svg>
