<svg width="658" height="503" viewBox="0 0 658 503" fill="none" xmlns="http://www.w3.org/2000/svg">
<path d="M427.021 241.5C436.419 256.574 440.184 265.038 453.342 284.774" stroke="black" stroke-width="5" stroke-linecap="round"/>
<path d="M456.009 221C465.408 236.074 470.259 243.458 483.417 263.194" stroke="black" stroke-width="5" stroke-linecap="round"/>
<path d="M655.41 374.06C644.445 349.937 614.996 299.436 584.921 290.414C547.327 279.135 514.432 262.218 504.094 272.557" stroke="black" stroke-width="5" stroke-linecap="round"/>
<path d="M635.673 500C603.718 489.975 534.921 457.895 515.372 409.774" stroke="black" stroke-width="5" stroke-linecap="round"/>
<path d="M501.274 429.511C503.781 442.356 514.808 463.722 538.868 446.429" stroke="black" stroke-width="5" stroke-linecap="round"/>
<path d="M460.86 312.03C453.655 341.479 449.958 392.105 492.815 359.023" stroke="black" stroke-width="5" stroke-linecap="round"/>
<path d="M579.281 354.323C574.582 359.336 561.236 365.226 545.447 348.684C525.71 328.008 504.094 247.18 464.62 267.857C425.146 288.534 506.913 360.902 509.733 385.338C512.552 409.774 515.372 422.932 501.274 429.511C487.176 436.09 474.018 425.752 476.838 372.18" stroke="black" stroke-width="5" stroke-linecap="round"/>
<path d="M231.792 185.15C231.792 191.898 237.263 197.368 244.011 197.368C247.475 197.368 250.604 195.926 252.827 193.609L244.011 172.932C237.263 172.932 231.792 178.402 231.792 185.15Z" fill="black"/>
<path d="M278.785 239.662C278.785 246.41 284.255 251.88 291.003 251.88C297.112 251.88 302.173 247.397 303.078 241.542L284.424 229.365C281.033 231.536 278.785 235.336 278.785 239.662Z" fill="black"/>
<circle cx="362.177" cy="130.639" r="103.703" stroke="black" stroke-width="5"/>
<circle cx="362.177" cy="130.639" r="128.139" stroke="black" stroke-width="5"/>
<path d="M342.509 259C338.377 270.518 334.646 277.775 329.601 284.823C328.858 285.86 329.069 287.3 330.063 288.099C344.594 299.783 364.296 329.297 338.887 365.188C312.614 402.299 265.064 382.301 245.1 366.941C244.759 366.679 244.514 366.331 244.369 365.926L185.38 201.281C185.256 200.935 185.216 200.568 185.269 200.204C188.872 175.217 204.327 144.409 233.009 132.5" stroke="black" stroke-width="7" stroke-linecap="round"/>
<path d="M390.558 225.802C396.37 181.825 383.373 132.607 322.636 103.911C304.902 95.5324 288.621 91.5591 273.844 90.9863" stroke="black" stroke-width="7" stroke-linecap="round"/>
<path d="M57.848 221.029C21.683 297.576 90.5248 343.693 128.42 354.012C129.651 354.347 130.374 355.587 130.114 356.836C126.309 375.089 129.832 410.399 172.252 421.989C216.115 433.972 240.146 388.328 245.814 363.784C245.911 363.365 245.88 362.941 245.734 362.536L186.746 197.891C186.622 197.545 186.422 197.238 186.15 196.991C156.13 169.645 90.3261 152.285 57.848 221.029Z" stroke="black" stroke-width="7" stroke-linecap="round"/>
<path d="M188.454 172.917C180.172 156.762 171.65 112.09 203.823 62.6499" stroke="black" stroke-width="7" stroke-linecap="round"/>
<path d="M176.152 183.406C172.291 165.666 150.505 125.747 94.2559 107.986" stroke="black" stroke-width="7" stroke-linecap="round"/>
<circle cx="123.71" cy="217.105" r="12.218" fill="black"/>
<circle cx="93.6345" cy="262.218" r="12.218" fill="black"/>
<circle cx="144.387" cy="265.977" r="12.218" fill="black"/>
<circle cx="178.221" cy="375" r="12.218" fill="black"/>
<circle cx="197.018" cy="333.647" r="12.218" fill="black"/>
<circle cx="151.906" cy="322.368" r="12.218" fill="black"/>
<circle cx="238.371" cy="230.263" r="12.218" fill="black"/>
<circle cx="291.003" cy="348.684" r="12.218" fill="black"/>
<circle cx="321.078" cy="312.97" r="12.218" fill="black"/>
<circle cx="356.793" cy="185.15" r="15.9774" fill="black"/>
<circle cx="306.041" cy="147.557" r="15.9774" fill="black"/>
<circle cx="274.086" cy="288.534" r="12.218" fill="black"/>
</svg>
